<svg width="18" height="17" viewBox="0 0 18 17" fill="none" xmlns="http://www.w3.org/2000/svg">
<path fill-rule="evenodd" clip-rule="evenodd" d="M3.16669 0.5H14.8334C16.2141 0.5 17.3334 1.61929 17.3334 3V11.3333C17.3334 12.714 16.2141 13.8333 14.8334 13.8333H6.12502C5.96418 13.8271 5.80499 13.8677 5.66669 13.95L1.92502 16.2167C1.79639 16.293 1.64959 16.3333 1.50002 16.3333C1.35686 16.3329 1.21623 16.2956 1.09169 16.225C0.829615 16.0777 0.667205 15.8006 0.666687 15.5V3C0.666687 1.61929 1.78598 0.5 3.16669 0.5ZM14.8334 12.1667C15.2936 12.1667 15.6667 11.7936 15.6667 11.3333V3C15.6667 2.53976 15.2936 2.16667 14.8334 2.16667H3.16669C2.70645 2.16667 2.33335 2.53976 2.33335 3V14.025L4.83335 12.525C5.22326 12.2902 5.66987 12.1663 6.12502 12.1667H14.8334Z" fill="#CDCCCA"/>
</svg>
