<svg width="18" height="15" viewBox="0 0 18 15" fill="none" xmlns="http://www.w3.org/2000/svg">
<path fill-rule="evenodd" clip-rule="evenodd" d="M8.40831 14.2583C8.56557 14.4143 8.77847 14.5013 8.99998 14.5C9.22148 14.5013 9.43438 14.4143 9.59164 14.2583L16.0666 7.77501C17.757 6.06698 17.757 3.31639 16.0666 1.60835C14.3624 -0.0911287 11.6043 -0.0911287 9.89997 1.60835L8.99998 2.50835L8.09998 1.60835C6.39569 -0.0911287 3.63759 -0.0911287 1.93331 1.60835C0.242934 3.31639 0.242934 6.06698 1.93331 7.77501L8.40831 14.2583ZM3.11664 2.78335C3.61988 2.27887 4.30409 1.99679 5.01664 2.00001C5.7292 1.99679 6.4134 2.27887 6.91664 2.78335L8.40831 4.28335C8.56478 4.44111 8.77778 4.52985 8.99998 4.52985C9.22217 4.52985 9.43517 4.44111 9.59164 4.28335L11.0833 2.78335C12.1497 1.7759 13.817 1.7759 14.8833 2.78335C15.931 3.8366 15.931 5.53842 14.8833 6.59168L8.99998 12.4833L3.11664 6.59168C2.0689 5.53842 2.0689 3.8366 3.11664 2.78335Z" fill="#CDCCCA"/>
</svg>
