<svg width="16" height="17" viewBox="0 0 16 17" fill="none" xmlns="http://www.w3.org/2000/svg">
<path d="M5.74165 16.5C4.35092 16.4933 3.02102 15.9289 2.04998 14.9333C1.08638 14.02 0.525573 12.761 0.491182 11.4338C0.456791 10.1067 0.951644 8.82028 1.86665 7.85832L7.99998 1.66666C8.66185 1.006 9.56507 0.644709 10.5 0.666655C11.5011 0.670064 12.4589 1.0754 13.1583 1.79166C14.5926 3.17257 14.6483 5.45057 13.2833 6.89999L7.11665 13.0917C6.71768 13.4933 6.17444 13.7184 5.60831 13.7167C4.99663 13.7175 4.41059 13.471 3.98331 13.0333C3.10351 12.1815 3.07377 10.78 3.91665 9.89165L9.60831 4.17499C9.94252 3.95303 10.3874 4.00071 10.667 4.28846C10.9466 4.5762 10.9815 5.02231 10.75 5.34999L5.05831 11.0667C4.86085 11.3045 4.89052 11.6568 5.12498 11.8583C5.24224 11.9764 5.40032 12.045 5.56665 12.05C5.69109 12.0518 5.81109 12.0038 5.89998 11.9167L12.0583 5.72499C12.7776 4.92593 12.7219 3.69738 11.9333 2.96666C11.2024 2.20778 10.0057 2.15288 9.20831 2.84166L3.04998 8.99999C2.44514 9.64963 2.12438 10.5137 2.1588 11.4006C2.19321 12.2876 2.57995 13.1242 3.23331 13.725C3.88861 14.4043 4.78948 14.7917 5.73331 14.8C6.54695 14.8066 7.32968 14.4887 7.90831 13.9167L14.0666 7.72499C14.3911 7.39822 14.919 7.39635 15.2458 7.72082C15.5726 8.04529 15.5744 8.57322 15.25 8.89999L9.09165 15.0917C8.20844 15.9905 7.00178 16.4978 5.74165 16.5Z" fill="#CDCCCA"/>
</svg>
