<svg width="20" height="20" viewBox="0 0 20 20" fill="none" xmlns="http://www.w3.org/2000/svg">
<g opacity="0.2">
<rect opacity="0.01" width="20" height="20" fill="black"/>
<path fill-rule="evenodd" clip-rule="evenodd" d="M14.425 13.25L17.2583 16.075C17.4161 16.2315 17.5048 16.4445 17.5048 16.6667C17.5048 16.8889 17.4161 17.1019 17.2583 17.2583C17.1019 17.4161 16.8889 17.5048 16.6667 17.5048C16.4445 17.5048 16.2315 17.4161 16.075 17.2583L13.25 14.425C12.0854 15.3392 10.6472 15.8352 9.16667 15.8333C5.48477 15.8333 2.5 12.8486 2.5 9.16667C2.5 5.48477 5.48477 2.5 9.16667 2.5C12.8486 2.5 15.8333 5.48477 15.8333 9.16667C15.8352 10.6472 15.3392 12.0854 14.425 13.25ZM9.16667 4.16667C6.40524 4.16667 4.16667 6.40524 4.16667 9.16667C4.16667 11.9281 6.40524 14.1667 9.16667 14.1667C11.9281 14.1667 14.1667 11.9281 14.1667 9.16667C14.1667 6.40524 11.9281 4.16667 9.16667 4.16667Z" fill="#1f2937"/>
</g>
</svg>
